Coordinates
version=1
nRows=10
nColumns=63
inDegrees=yes

Units are S.I. units (second, meters, Newtons, ...)
If the header above contains a line with 'inDegrees', this indicates whether rotational values are in degrees (yes) or radians (no).

endheader
time	pelvis_tilt	pelvis_list	pelvis_rotation	pelvis_tx	pelvis_ty	pelvis_tz	hip_flexion_r	hip_adduction_r	hip_rotation_r	knee_angle_r	knee_angle_r_beta	ankle_angle_r	subtalar_angle_r	mtp_angle_r	hip_flexion_l	hip_adduction_l	hip_rotation_l	knee_angle_l	knee_angle_l_beta	ankle_angle_l	subtalar_angle_l	mtp_angle_l	L5_S1_Flex_Ext	L5_S1_Lat_Bending	L5_S1_axial_rotation	L4_L5_Flex_Ext	L4_L5_Lat_Bending	L4_L5_axial_rotation	L3_L4_Flex_Ext	L3_L4_Lat_Bending	L3_L4_axial_rotation	L2_L3_Flex_Ext	L2_L3_Lat_Bending	L2_L3_axial_rotation	L1_L2_Flex_Ext	L1_L2_Lat_Bending	L1_L2_axial_rotation	L1_T12_Flex_Ext	L1_T12_Lat_Bending	L1_T12_axial_rotation	Abs_r3	Abs_r2	Abs_r1	Abs_t1	Abs_t2	neck_flexion	neck_bending	neck_rotation	arm_flex_r	arm_add_r	arm_rot_r	elbow_flex_r	pro_sup_r	wrist_flex_r	wrist_dev_r	arm_flex_l	arm_add_l	arm_rot_l	elbow_flex_l	pro_sup_l	wrist_flex_l	wrist_dev_l
      6.88135593	     -4.27841362	     -5.74397440	     73.59206620	      0.27949588	      0.55916517	      0.68341180	      7.55531419	     -1.10246805	     -2.12413244	      9.36226809	      0.16340240	     25.77231595	      1.75385137	      0.00000000	      7.11341363	      0.04967694	     -7.49650612	      6.92831185	      0.12092185	     29.22902828	     10.79457572	      0.00000000	      0.16171718	     -0.21774952	      0.65440696	      0.30032497	     -0.28960686	      0.69530739	      0.26568515	     -0.52943618	      0.69530739	      0.18482656	     -0.52943618	      0.57260609	      0.15017057	     -0.44403482	      0.53170565	      0.09240519	     -0.33729401	      0.49080522	      1.15512962	     -2.46322612	      3.63961519	      0.00000000	      0.00000000	     27.54406495	      7.53316388	      0.38945812	     13.38983290	     -3.01044526	     59.94816727	     30.60139411	     61.47631171	     -1.34599236	      5.50787405	     14.29384880	     -2.39731276	     62.68699464	     35.29503287	     64.88133954	    -10.79005228	      3.90629269
      6.89830508	     -4.34060530	     -5.70869366	     73.32676416	      0.28012398	      0.55895254	      0.68378151	      7.63123494	     -1.05947285	     -1.13935859	      9.40710524	      0.16418496	     25.76964959	      0.83210141	      0.00000000	      7.16086667	     -0.11871216	    -10.13573811	      7.15642300	      0.12490314	     29.69811582	     14.12499933	      0.00000000	      0.15845697	     -0.23205252	      0.75787290	      0.29427045	     -0.30862986	      0.80523995	      0.26032896	     -0.56421251	      0.80523995	      0.18110047	     -0.56421251	      0.66313878	      0.14714315	     -0.47320151	      0.61577173	      0.09054231	     -0.35944936	      0.56840467	      1.13184232	     -2.62502456	      4.21506169	      0.00000000	      0.00000000	     27.39281158	      6.64755672	     -1.12584267	     13.10020393	     -2.98910856	     58.25257867	     30.86348488	     56.33247711	     -0.40200743	      7.15318386	     15.13686971	     -2.34969630	     63.88639617	     35.07993890	     65.18526063	     -9.59817812	      5.45734994
      6.91525424	     -4.35512969	     -5.74519143	     73.23622655	      0.28027208	      0.55861624	      0.68410907	      7.71381953	     -1.02925078	     -1.08769008	      9.37173556	      0.16356764	     25.87481172	      0.84920738	      0.00000000	      7.19453511	     -0.14646536	    -10.08870900	      7.16091992	      0.12498163	     29.70169906	     14.14976130	      0.00000000	      0.15181515	     -0.23044957	      0.74019930	      0.28193592	     -0.30649792	      0.78646176	      0.24941711	     -0.56031507	      0.78646176	      0.17350954	     -0.56031507	      0.64767439	      0.14097555	     -0.46993275	      0.60141193	      0.08674718	     -0.35696638	      0.55514948	      1.08440044	     -2.60689157	      4.11676645	      0.00000000	      0.00000000	     27.15831474	      6.64691081	     -1.19752372	     13.31318368	     -2.98736784	     58.17257682	     30.87297312	     56.29494657	     -0.38839197	      7.17641776	     15.40924029	     -2.32935581	     63.83341256	     35.05630028	     65.16222790	     -9.55704625	      5.55072762
      6.93220339	     -4.24385536	     -5.71226756	     73.44532493	      0.28015939	      0.55836734	      0.68468570	      7.73406823	     -0.93252027	     -1.21831901	      9.48748917	      0.16558792	     26.04306106	      0.84389652	      0.00000000	      7.30227892	     -0.28340938	     -9.74341107	      7.51260567	      0.13111970	     29.76791858	     14.04386851	      0.00000000	      0.12578631	     -0.22645358	      0.72484671	      0.23359776	     -0.30118326	      0.77014963	      0.20665433	     -0.55059923	      0.77014963	      0.14376117	     -0.55059923	      0.63424087	      0.11680517	     -0.46178414	      0.58893795	      0.07187430	     -0.35077659	      0.54363503	      0.89847904	     -2.56168816	      4.03137996	      0.00000000	      0.00000000	     26.51486719	      6.38724959	     -2.06241888	     13.55526160	     -2.88542518	     57.52619143	     30.71993069	     55.26763416	      0.51137870	      8.68624717	     16.22597695	     -2.15553945	     64.22963919	     34.83973485	     64.56036414	     -7.68450779	      8.30397776
      6.94915254	     -4.23360027	     -5.72600381	     73.47870639	      0.28024820	      0.55792896	      0.68473895	      7.78580077	     -0.94689582	     -1.77231459	      9.55855316	      0.16682822	     26.41784387	      1.62991775	      0.00000000	      7.29920832	     -0.28276341	     -9.24248008	      7.55778468	      0.13190823	     29.73039053	     13.54552681	      0.00000000	      0.11586008	     -0.22722027	      0.73095410	      0.21516376	     -0.30220296	      0.77663873	      0.19034653	     -0.55246337	      0.77663873	      0.13241649	     -0.55246337	      0.63958483	      0.10758767	     -0.46334758	      0.59390020	      0.06620245	     -0.35196420	      0.54821557	      0.82757697	     -2.57036114	      4.06534739	      0.00000000	      0.00000000	     25.69855184	      6.59618795	     -2.12158291	     13.36931896	     -2.87446233	     56.71801855	     31.05636582	     52.05350685	      0.38057466	      9.66453126	     16.40169460	     -2.08789350	     63.73452467	     34.83130280	     64.19710037	     -6.60814067	      9.22974020
      6.96610169	     -4.19950699	     -5.76420923	     73.52857189	      0.28028426	      0.55742006	      0.68496756	      7.86957339	     -0.93805621	     -2.40584248	      9.65736462	      0.16855281	     26.83096645	      2.47422240	      0.00000000	      7.34377207	     -0.30621373	     -8.76139351	      7.62555641	      0.13309107	     29.73559608	     12.99776403	      0.00000000	      0.10495358	     -0.22434935	      0.73229086	      0.19490930	     -0.29838463	      0.77805904	      0.17242824	     -0.54548301	      0.77805904	      0.11995145	     -0.54548301	      0.64075450	      0.09745990	     -0.45749319	      0.59498632	      0.05997048	     -0.34751714	      0.54921814	      0.74967294	     -2.53788470	      4.07278207	      0.00000000	      0.00000000	     24.87325159	      7.05778609	     -1.74806745	     13.36069535	     -2.87053631	     56.46554802	     31.22755077	     51.99829129	      0.10041946	      9.53568864	     16.49944874	     -2.04264011	     63.07237391	     34.90335375	     64.81286769	     -5.87578883	     10.20146445
      6.98305085	     -4.15466105	     -5.79635589	     73.50301969	      0.28054034	      0.55694918	      0.68522180	      7.90189137	     -0.81909727	     -1.90370899	      9.66345980	      0.16865919	     26.97807397	      1.85478885	      0.00000000	      7.38701330	     -0.38418184	     -8.89653594	      7.70434398	      0.13446617	     29.87075683	     13.08515433	      0.00000000	      0.09293455	     -0.22201743	      0.77282108	      0.17258876	     -0.29528319	      0.82112240	      0.15268218	     -0.53981319	      0.82112240	      0.10621490	     -0.53981319	      0.67621845	      0.08629903	     -0.45273795	      0.62791713	      0.05310280	     -0.34390500	      0.57961581	      0.66382222	     -2.51150561	      4.29819902	      0.00000000	      0.00000000	     24.07783281	      7.61434812	     -1.29339520	     13.19243960	     -2.86977624	     55.92729654	     31.43360412	     52.97510833	     -0.39370170	      8.83880090	     16.66166485	     -1.99607212	     62.81425223	     34.93715146	     65.47219465	     -5.45053346	     11.05756224
      7.00000000	     -4.15368049	     -5.92114376	     73.47115005	      0.28065036	      0.55631193	      0.68553157	      8.08778174	     -0.76631813	     -1.83470484	      9.78312781	      0.17074779	     27.31486942	      1.84107685	      0.00000000	      7.60089507	     -0.40024757	     -8.50588974	      7.86488980	      0.13726822	     30.11709662	     12.34554199	      0.00000000	      0.10119132	     -0.21971523	      0.80265914	      0.18792240	     -0.29222126	      0.85282533	      0.16624722	     -0.53421561	      0.85282533	      0.11565156	     -0.53421561	      0.70232674	      0.09396626	     -0.44804330	      0.65216055	      0.05782072	     -0.34033889	      0.60199435	      0.72279946	     -2.48546264	      4.46414932	      0.00000000	      0.00000000	     23.33089735	      7.63566764	     -1.13728118	     13.18318614	     -2.86164431	     55.92886074	     31.47898264	     52.91856159	     -0.49734419	      8.70316403	     16.75463780	     -2.00916288	     62.84558996	     34.95382770	     65.30651630	     -5.44371824	     11.04516051
      7.01694915	     -4.03518477	     -5.79527694	     73.60244425	      0.28065247	      0.55616978	      0.68571233	      7.89096445	     -0.67217186	     -1.76992311	      9.74631884	      0.17010535	     27.48829774	      1.63150451	      0.00000000	      7.41050881	     -0.45831782	     -8.54827510	      7.71757711	      0.13469713	     30.14326434	     12.45027704	      0.00000000	      0.06910336	     -0.21313187	      0.82719062	      0.12833185	     -0.28346538	      0.87889003	      0.11352991	     -0.51820882	      0.87889003	      0.07897823	     -0.51820882	      0.72379179	      0.06416938	     -0.43461850	      0.67209238	      0.03948566	     -0.33014126	      0.62039297	      0.49359839	     -2.41099029	      4.60058607	      0.00000000	      0.00000000	     22.62222043	      8.61125623	     -0.18724218	     12.93476269	     -2.98569513	     55.82491313	     31.75993313	     53.46071930	     -1.77470578	      6.81268523	     17.28507086	     -1.95893280	     63.70914996	     34.91719657	     66.32438254	     -5.42509258	     12.16585331
      7.03389831	     -3.95199054	     -5.70584909	     73.65502792	      0.28053528	      0.55604046	      0.68591792	      7.79316751	     -0.60847993	     -1.61643259	      9.80916878	      0.17120229	     27.67132090	      1.38638332	      0.00000000	      7.31298497	     -0.47931194	     -8.51158831	      7.64643851	      0.13345553	     30.24350455	     12.19709141	      0.00000000	      0.05174823	     -0.20775666	      0.81332985	      0.09610164	     -0.27631635	      0.86416296	      0.08501717	     -0.50513953	      0.86416296	      0.05914305	     -0.50513953	      0.71166362	      0.04805341	     -0.42365737	      0.66083050	      0.02956894	     -0.32181506	      0.60999739	      0.36963243	     -2.35018483	      4.52349662	      0.00000000	      0.00000000	     22.06610416	      8.72240209	     -0.09499068	     13.02811963	     -3.02251494	     56.28417282	     31.73903000	     54.08881209	     -2.29886903	      6.11756627	     17.46517590	     -1.95230161	     63.91443079	     34.87416569	     67.33210585	     -5.74709528	     12.38943806
